# Blender 4.5.3 LTS
# www.blender.org
o Ground.003
v 14.353559 -0.751005 23.853256
v 42.373070 -0.751005 23.853256
v 14.353559 -0.751005 -4.166253
v 42.373070 -0.751005 -4.166253
v 12.181505 -0.751005 -1.152526
v 10.552464 -0.751005 2.241309
v 9.575039 -0.751005 5.960953
v 9.249229 -0.751005 9.843501
v 9.575039 -0.751005 13.726049
v 10.552464 -0.751005 17.445694
v 12.181505 -0.751005 20.839527
v 17.367287 -0.751005 26.025311
v 20.761122 -0.751005 27.654350
v 24.480766 -0.751005 28.631775
v 28.363314 -0.751005 28.957584
v 32.245861 -0.751005 28.631775
v 35.965508 -0.751005 27.654350
v 39.359341 -0.751005 26.025311
v 44.545120 -0.751005 20.839527
v 46.174164 -0.751005 17.445694
v 47.151588 -0.751005 13.726049
v 47.477398 -0.751005 9.843501
v 47.151588 -0.751005 5.960953
v 46.174164 -0.751005 2.241309
v 44.545120 -0.751005 -1.152526
v 39.359341 -0.751005 -6.338307
v 35.965508 -0.751005 -7.967349
v 32.245861 -0.751005 -8.944774
v 28.363314 -0.751005 -9.270583
v 24.480766 -0.751005 -8.944774
v 20.761122 -0.751005 -7.967349
v 17.367287 -0.751005 -6.338307
v 16.039732 -0.751005 22.167084
v 20.019003 -0.751005 23.251413
v 24.148735 -0.751005 23.940928
v 28.363314 -0.751005 24.179062
v 32.577892 -0.751005 23.940929
v 36.707623 -0.751005 23.251413
v 40.686897 -0.751005 22.167084
v 14.955400 -0.751005 18.187813
v 19.385489 -0.751005 18.821327
v 23.860825 -0.751005 19.246689
v 28.363314 -0.751005 19.400543
v 32.865803 -0.751005 19.246689
v 37.341141 -0.751005 18.821327
v 41.771229 -0.751005 18.187813
v 14.265887 -0.751005 14.058079
v 18.960127 -0.751005 14.345989
v 23.660023 -0.751005 14.546791
v 28.363314 -0.751005 14.622021
v 33.066605 -0.751005 14.546791
v 37.766502 -0.751005 14.345989
v 42.460739 -0.751005 14.058079
v 14.027751 -0.751005 9.843501
v 18.806273 -0.751005 9.843501
v 23.584793 -0.751005 9.843501
v 28.363314 -0.751005 9.843501
v 33.141834 -0.751005 9.843501
v 37.920357 -0.751005 9.843501
v 42.698875 -0.751005 9.843501
v 14.265885 -0.751005 5.628923
v 18.960125 -0.751005 5.341012
v 23.660023 -0.751005 5.140211
v 28.363314 -0.751005 5.064981
v 33.066605 -0.751005 5.140211
v 37.766502 -0.751005 5.341012
v 42.460743 -0.751005 5.628923
v 14.955401 -0.751005 1.499191
v 19.385487 -0.751005 0.865674
v 23.860825 -0.751005 0.440313
v 28.363314 -0.751005 0.286460
v 32.865803 -0.751005 0.440314
v 37.341141 -0.751005 0.865675
v 41.771225 -0.751005 1.499190
v 16.039732 -0.751005 -2.480081
v 20.019003 -0.751005 -3.564413
v 24.148735 -0.751005 -4.253925
v 28.363314 -0.751005 -4.492062
v 32.577892 -0.751005 -4.253927
v 36.707623 -0.751005 -3.564411
v 40.686897 -0.751005 -2.480082
vn -0.0000 1.0000 -0.0000
vt 0.157430 0.789527
vt 0.250435 0.710922
vt 0.257148 0.825899
vt 0.138185 0.685141
vt 0.249158 0.595233
vt 0.129390 0.577747
vt 0.254902 0.479432
vt 0.147530 0.361575
vt 0.132353 0.469148
vt 0.174101 0.257148
vt 0.268537 0.364293
vt 0.210473 0.157430
vt 0.289078 0.250435
vt 0.364293 0.731462
vt 0.361575 0.852470
vt 0.369258 0.610498
vt 0.377451 0.489716
vt 0.389502 0.369258
vt 0.314859 0.138186
vt 0.404767 0.249158
vt 0.479432 0.745098
vt 0.469148 0.867647
vt 0.489716 0.622549
vt 0.500000 0.500000
vt 0.510284 0.377451
vt 0.422253 0.129390
vt 0.520568 0.254902
vt 0.577747 0.870610
vt 0.595233 0.750842
vt 0.610498 0.630742
vt 0.630742 0.389502
vt 0.622549 0.510284
vt 0.635706 0.268538
vt 0.638425 0.147530
vt 0.685141 0.861814
vt 0.710922 0.749565
vt 0.731462 0.635707
vt 0.750842 0.404767
vt 0.745098 0.520568
vt 0.749565 0.289078
vt 0.742852 0.174101
vt 0.789526 0.842570
vt 0.825899 0.742852
vt 0.852470 0.638425
vt 0.870610 0.422253
vt 0.867647 0.530852
vt 0.861814 0.314859
vt 0.842570 0.210473
vt 0.110558 0.829141
vt 0.183173 0.891331
vt 0.061340 0.747177
vt 0.026866 0.656634
vt 0.009804 0.559137
vt 0.026515 0.359995
vt 0.009804 0.458865
vt 0.059587 0.266705
vt 0.108669 0.183173
vt 0.170859 0.110558
vt 0.252823 0.061340
vt 0.343366 0.026866
vt 0.440863 0.009804
vt 0.530851 0.132353
vt 0.640005 0.026515
vt 0.733295 0.059587
vt 0.816827 0.108669
vt 0.889442 0.170859
vt 0.938660 0.252823
vt 0.973134 0.343366
vt 0.990196 0.440863
vt 0.990196 0.541135
vt 0.973485 0.640005
vt 0.940413 0.733295
vt 0.891331 0.816827
vt 0.829141 0.889442
vt 0.747177 0.938660
vt 0.656633 0.973134
vt 0.559137 0.990196
vt 0.458864 0.990196
vt 0.359995 0.973485
vt 0.266705 0.940413
vt 0.541135 0.009804
s 1
f 33/1/1 41/2/1 40/3/1
f 34/4/1 42/5/1 41/2/1
f 35/6/1 43/7/1 42/5/1
f 37/8/1 43/7/1 36/9/1
f 38/10/1 44/11/1 37/8/1
f 39/12/1 45/13/1 38/10/1
f 40/3/1 48/14/1 47/15/1
f 41/2/1 49/16/1 48/14/1
f 42/5/1 50/17/1 49/16/1
f 44/11/1 50/17/1 43/7/1
f 45/13/1 51/18/1 44/11/1
f 46/19/1 52/20/1 45/13/1
f 47/15/1 55/21/1 54/22/1
f 48/14/1 56/23/1 55/21/1
f 49/16/1 57/24/1 56/23/1
f 51/18/1 57/24/1 50/17/1
f 52/20/1 58/25/1 51/18/1
f 53/26/1 59/27/1 52/20/1
f 55/21/1 61/28/1 54/22/1
f 56/23/1 62/29/1 55/21/1
f 57/24/1 63/30/1 56/23/1
f 57/24/1 65/31/1 64/32/1
f 58/25/1 66/33/1 65/31/1
f 59/27/1 67/34/1 66/33/1
f 62/29/1 68/35/1 61/28/1
f 63/30/1 69/36/1 62/29/1
f 64/32/1 70/37/1 63/30/1
f 64/32/1 72/38/1 71/39/1
f 65/31/1 73/40/1 72/38/1
f 66/33/1 74/41/1 73/40/1
f 69/36/1 75/42/1 68/35/1
f 70/37/1 76/43/1 69/36/1
f 71/39/1 77/44/1 70/37/1
f 71/39/1 79/45/1 78/46/1
f 72/38/1 80/47/1 79/45/1
f 73/40/1 81/48/1 80/47/1
f 1/49/1 33/1/1 11/50/1
f 12/51/1 34/4/1 33/1/1
f 13/52/1 35/6/1 34/4/1
f 14/53/1 36/9/1 35/6/1
f 16/54/1 36/9/1 15/55/1
f 17/56/1 37/8/1 16/54/1
f 18/57/1 38/10/1 17/56/1
f 2/58/1 39/12/1 18/57/1
f 19/59/1 46/19/1 39/12/1
f 20/60/1 53/26/1 46/19/1
f 21/61/1 60/62/1 53/26/1
f 60/62/1 23/63/1 67/34/1
f 67/34/1 24/64/1 74/41/1
f 74/41/1 25/65/1 81/48/1
f 81/48/1 4/66/1 26/67/1
f 80/47/1 26/67/1 27/68/1
f 79/45/1 27/68/1 28/69/1
f 78/46/1 28/69/1 29/70/1
f 78/46/1 30/71/1 77/44/1
f 77/44/1 31/72/1 76/43/1
f 76/43/1 32/73/1 75/42/1
f 75/42/1 3/74/1 5/75/1
f 68/35/1 5/75/1 6/76/1
f 61/28/1 6/76/1 7/77/1
f 54/22/1 7/77/1 8/78/1
f 9/79/1 54/22/1 8/78/1
f 10/80/1 47/15/1 9/79/1
f 11/50/1 40/3/1 10/80/1
f 33/1/1 34/4/1 41/2/1
f 34/4/1 35/6/1 42/5/1
f 35/6/1 36/9/1 43/7/1
f 37/8/1 44/11/1 43/7/1
f 38/10/1 45/13/1 44/11/1
f 39/12/1 46/19/1 45/13/1
f 40/3/1 41/2/1 48/14/1
f 41/2/1 42/5/1 49/16/1
f 42/5/1 43/7/1 50/17/1
f 44/11/1 51/18/1 50/17/1
f 45/13/1 52/20/1 51/18/1
f 46/19/1 53/26/1 52/20/1
f 47/15/1 48/14/1 55/21/1
f 48/14/1 49/16/1 56/23/1
f 49/16/1 50/17/1 57/24/1
f 51/18/1 58/25/1 57/24/1
f 52/20/1 59/27/1 58/25/1
f 53/26/1 60/62/1 59/27/1
f 55/21/1 62/29/1 61/28/1
f 56/23/1 63/30/1 62/29/1
f 57/24/1 64/32/1 63/30/1
f 57/24/1 58/25/1 65/31/1
f 58/25/1 59/27/1 66/33/1
f 59/27/1 60/62/1 67/34/1
f 62/29/1 69/36/1 68/35/1
f 63/30/1 70/37/1 69/36/1
f 64/32/1 71/39/1 70/37/1
f 64/32/1 65/31/1 72/38/1
f 65/31/1 66/33/1 73/40/1
f 66/33/1 67/34/1 74/41/1
f 69/36/1 76/43/1 75/42/1
f 70/37/1 77/44/1 76/43/1
f 71/39/1 78/46/1 77/44/1
f 71/39/1 72/38/1 79/45/1
f 72/38/1 73/40/1 80/47/1
f 73/40/1 74/41/1 81/48/1
f 1/49/1 12/51/1 33/1/1
f 12/51/1 13/52/1 34/4/1
f 13/52/1 14/53/1 35/6/1
f 14/53/1 15/55/1 36/9/1
f 16/54/1 37/8/1 36/9/1
f 17/56/1 38/10/1 37/8/1
f 18/57/1 39/12/1 38/10/1
f 2/58/1 19/59/1 39/12/1
f 19/59/1 20/60/1 46/19/1
f 20/60/1 21/61/1 53/26/1
f 21/61/1 22/81/1 60/62/1
f 60/62/1 22/81/1 23/63/1
f 67/34/1 23/63/1 24/64/1
f 74/41/1 24/64/1 25/65/1
f 81/48/1 25/65/1 4/66/1
f 80/47/1 81/48/1 26/67/1
f 79/45/1 80/47/1 27/68/1
f 78/46/1 79/45/1 28/69/1
f 78/46/1 29/70/1 30/71/1
f 77/44/1 30/71/1 31/72/1
f 76/43/1 31/72/1 32/73/1
f 75/42/1 32/73/1 3/74/1
f 68/35/1 75/42/1 5/75/1
f 61/28/1 68/35/1 6/76/1
f 54/22/1 61/28/1 7/77/1
f 9/79/1 47/15/1 54/22/1
f 10/80/1 40/3/1 47/15/1
f 11/50/1 33/1/1 40/3/1
